# 3ds Max Wavefront OBJ Exporter v0.97b - (c)2007 guruware
# File Created: 04.03.2013 19:32:04

mtllib trish.mtl

#
# object Mesh01
#

v  -15.7638 319.9555 -26.4361
v  0.0011 313.8957 -17.5574
v  -14.8218 339.4104 -16.5157
v  -0.0019 332.0299 -17.8830
v  -0.0054 272.7596 -86.8027
v  -0.0055 227.8121 -99.7391
v  -54.7209 207.8571 -82.4831
v  -48.2696 258.0233 -66.6770
v  -31.1546 291.8398 -53.6087
v  -0.0069 202.1524 -107.1879
v  -57.7802 184.6288 -102.3582
v  14.4004 340.4258 -23.4660
v  0.0234 173.5186 -37.6569
v  0.0233 173.4871 3.9295
v  -4.2499 115.1183 -9.9661
v  -28.1399 224.4361 -18.4780
v  -23.7596 224.4019 -33.6177
v  -39.4967 201.8335 -20.6808
v  -33.8870 201.8300 -37.2111
v  -36.0044 173.4589 -37.6698
v  21.7458 419.2090 -8.6093
v  16.8440 421.1555 -50.8489
v  0.0219 424.6553 -8.1974
v  33.7351 403.0472 -7.7824
v  32.2257 393.5561 -59.8998
v  20.3886 402.7814 -71.7153
v  0.0073 423.7832 -52.1199
v  36.2997 394.8854 -9.8304
v  35.7382 339.1271 -19.0530
v  32.0487 305.2825 -47.2956
v  29.2898 291.8398 -53.6087
v  22.7624 374.3804 -73.8693
v  0.0034 373.9060 -78.8020
v  0.0050 405.2654 -74.3335
v  -14.8405 421.3100 -50.5530
v  -14.3795 415.6447 2.3988
v  -8.4585 411.6061 3.9550
v  -4.5402 416.0585 2.2028
v  20.1950 402.6341 7.7962
v  30.9181 383.2157 9.9514
v  29.3176 342.1965 -0.1764
v  13.8990 319.9555 -26.4361
v  -21.5880 374.5809 -73.4561
v  -18.9284 402.9628 -71.3615
v  -33.8294 403.6380 -35.9883
v  -32.8770 399.9183 -4.1272
v  -40.1325 337.0163 -40.5820
v  -30.6936 393.8355 -59.3088
v  -36.0907 387.1267 -11.2908
v  44.0716 257.9271 -66.6809
v  50.5871 207.8571 -82.5073
v  54.4110 184.6274 -102.4776
v  27.9415 366.9896 -8.4878
v  29.3832 382.1844 -9.4072
v  26.0756 405.6364 -1.8923
v  -16.5007 411.1522 7.9421
v  -23.9926 407.3104 -2.7253
v  -29.8081 399.1320 8.0870
v  -29.0933 382.3774 -8.3627
v  -33.0673 377.5001 -1.4377
v  -27.7771 367.2444 -7.9810
v  -29.4436 340.3174 -16.1524
v  -24.5146 357.2504 -9.6172
v  -19.5658 346.7836 -11.2733
v  0.0105 378.7233 6.6526
v  11.3183 376.5908 3.8459
v  8.4842 358.1533 5.2203
v  25.1842 357.1200 -9.3986
v  20.2669 347.8872 -10.2849
v  11.6924 343.1496 -5.1843
v  0.0101 338.3264 -0.0581
v  -11.0750 342.5294 -5.6529
v  -8.1274 358.2188 5.3734
v  -10.8181 376.6776 4.0368
v  0.0104 359.8088 15.6209
v  0.0111 355.5848 8.0674
v  -17.5349 201.8321 -44.9065
v  15.6701 201.8321 -44.9065
v  0.0011 224.3467 -35.5495
v  2.3851 115.1183 -9.9661
v  26.2751 224.4361 -18.4780
v  37.6318 201.8335 -20.6808
v  21.8948 224.4019 -33.6177
v  32.0221 201.8300 -37.2111
v  34.1396 173.4589 -37.6698
v  -26.1821 173.4821 6.5869
v  0.0000 201.8251 12.0431
v  -17.4565 115.1271 1.2072
v  0.0011 277.7199 19.7673
v  -20.2381 278.2175 23.1803
v  0.0011 257.2613 13.9571
v  -24.4574 260.1320 11.4965
v  -18.7257 224.4176 5.7891
v  -32.1772 201.8304 5.9217
v  -39.4530 173.4839 -11.4241
v  -28.8973 115.1404 -5.2386
v  -21.7535 32.4370 -4.0961
v  -11.2391 32.4350 -8.0130
v  -7.3597 32.4114 -25.7741
v  -17.7804 115.1289 -29.7065
v  0.0011 288.8823 15.2131
v  -19.3802 290.6528 20.5821
v  -33.7679 287.6139 9.1536
v  -35.1848 276.9454 13.6052
v  -37.9271 260.5951 -14.8217
v  -31.5052 115.1051 -18.2123
v  -31.4443 32.4228 -12.5227
v  -21.5639 14.6909 9.1332
v  -8.8740 3.5653 2.4218
v  -16.3137 3.5946 -29.0029
v  -41.5541 285.5926 -31.2990
v  -56.6273 234.9714 -44.8264
v  -59.7913 237.4146 -52.7228
v  -45.8468 297.1159 -53.8879
v  -41.6904 299.7962 -49.0944
v  -33.9135 305.2825 -47.2956
v  -37.9333 304.1118 -24.8459
v  -42.0980 294.5109 -20.6713
v  -51.2533 276.5330 -33.4951
v  -59.5783 236.4133 -35.3184
v  -79.7795 201.2415 -33.0577
v  -75.2486 199.8430 -47.4766
v  -81.6334 202.8270 -51.1659
v  -69.9601 242.5018 -48.1171
v  -50.8863 299.1825 -50.5042
v  -45.2154 304.8890 -46.7314
v  -47.8297 302.2902 -33.6742
v  -27.6665 32.3969 -31.7214
v  -27.7250 3.6092 -31.8518
v  -31.9413 3.6021 0.2172
v  -21.5321 3.5771 31.6941
v  -56.3758 295.3977 -36.1917
v  -69.9538 241.7104 -37.7800
v  -92.4641 207.1784 -28.1759
v  -86.3829 204.0398 -22.0928
v  -101.8585 187.3445 -53.2160
v  -116.0857 189.7936 -27.9275
v  -101.1868 194.5842 -15.7854
v  -96.3037 187.9291 -12.8122
v  -96.2896 181.2146 -54.5544
v  -116.5134 162.7821 -50.4370
v  -126.8931 162.6191 -36.1594
v  -109.3252 188.1412 -26.2429
v  -113.6995 174.8878 -13.7261
v  24.3172 173.4821 6.5869
v  15.5916 115.1271 1.2072
v  18.3732 278.2175 23.1803
v  22.5926 260.1320 11.4965
v  16.8608 224.4176 5.7891
v  30.3123 201.8304 5.9218
v  37.5881 173.4839 -11.4241
v  27.0325 115.1404 -5.2386
v  19.8886 32.4370 -4.0961
v  9.3742 32.4350 -8.0130
v  5.4949 32.4114 -25.7741
v  15.9156 115.1289 -29.7065
v  17.5153 290.6528 20.5821
v  31.9030 287.6139 9.1536
v  33.3199 276.9454 13.6052
v  36.0623 260.5951 -14.8216
v  29.6404 115.1051 -18.2122
v  29.5794 32.4228 -12.5227
v  19.6990 14.6909 9.1332
v  7.0091 3.5653 2.4219
v  14.4489 3.5946 -29.0028
v  39.6893 285.5926 -31.2990
v  54.7626 234.9714 -44.8263
v  57.9265 237.4146 -52.7228
v  43.9819 297.1159 -53.8879
v  39.8256 299.7962 -49.0943
v  36.0684 304.1118 -24.8458
v  40.2332 294.5109 -20.6712
v  49.3884 276.5330 -33.4951
v  57.7135 236.4133 -35.3184
v  80.1885 201.2418 -33.0577
v  75.6576 199.8430 -47.4766
v  82.0423 202.8273 -51.1658
v  68.0953 242.5018 -48.1171
v  49.0215 299.1825 -50.5041
v  43.3506 304.8890 -46.7314
v  45.9648 302.2902 -33.6742
v  25.8017 32.3969 -31.7214
v  25.8602 3.6092 -31.8518
v  30.0764 3.6021 0.2172
v  19.6672 3.5771 31.6941
v  54.5110 295.3977 -36.1917
v  68.0889 241.7104 -37.7799
v  92.8728 207.1794 -28.1759
v  86.7918 204.0405 -22.0927
v  102.2683 187.3460 -53.2159
v  116.4954 189.7959 -27.9274
v  101.5962 194.5856 -15.7853
v  96.7135 187.9303 -12.8121
v  96.6997 181.2158 -54.5543
v  116.9247 162.7844 -50.4369
v  127.3043 162.6219 -36.1593
v  109.7349 188.1431 -26.2428
v  114.1101 174.8900 -13.7260
# 198 vertices

vn -0.4975 0.0860 0.8632
vn 0.0290 0.5846 0.8108
vn -0.1928 -0.6236 0.7576
vn 0.2264 0.1010 0.9688
vn 0.0163 0.2752 -0.9612
vn 0.0138 0.2775 -0.9606
vn -0.9555 -0.1817 0.2323
vn -0.9500 0.1566 0.2702
vn -0.4744 -0.1595 -0.8657
vn 0.0078 0.1293 -0.9916
vn -0.8329 -0.4772 -0.2803
vn -0.1633 -0.5250 0.8353
vn -0.0007 -0.2395 -0.9709
vn -0.0047 -0.2157 0.9765
vn 0.9756 -0.1458 0.1641
vn -0.9914 0.1289 0.0233
vn -0.6386 0.1209 -0.7600
vn -0.9697 0.2420 -0.0337
vn -0.7325 0.2311 -0.6403
vn -0.6760 -0.1344 -0.7245
vn 0.5198 0.7918 0.3208
vn 0.4874 0.8235 -0.2905
vn -0.3299 0.9005 0.2832
vn 0.8579 0.4500 0.2478
vn 0.9097 0.2301 -0.3457
vn 0.4867 0.4390 -0.7552
vn -0.0282 0.9445 -0.3272
vn 0.9832 0.1451 0.1108
vn 0.9714 -0.1768 0.1587
vn 0.8303 0.4143 -0.3727
vn 0.4931 -0.1719 -0.8528
vn 0.5873 0.0270 -0.8089
vn -0.0200 0.1021 -0.9946
vn -0.0182 0.4879 -0.8727
vn -0.4464 0.8598 -0.2481
vn -0.1137 0.9193 0.3767
vn -0.0281 0.3666 0.9300
vn -0.3459 0.7269 0.5933
vn 0.2301 -0.5565 0.7984
vn -0.0310 -0.0125 0.9994
vn 0.0712 -0.2880 0.9550
vn 0.3338 0.1242 0.9344
vn -0.5889 0.0481 -0.8068
vn -0.4948 0.4330 -0.7534
vn -0.8999 0.4295 -0.0761
vn -0.8735 0.4547 0.1738
vn -0.9924 -0.1194 -0.0312
vn -0.8874 0.2394 -0.3939
vn -0.9910 0.0500 0.1239
vn 0.9501 0.1310 0.2831
vn 0.9516 -0.1812 0.2481
vn 0.8358 -0.4751 -0.2752
vn -0.4041 -0.0492 0.9134
vn -0.4189 -0.1145 0.9008
vn -0.5025 -0.7284 0.4658
vn -0.2303 -0.1181 0.9659
vn 0.3658 -0.6195 0.6946
vn -0.0290 0.1946 0.9804
vn 0.3027 -0.1606 0.9394
vn -0.2302 -0.2741 0.9337
vn -0.0261 -0.2162 0.9760
vn -0.5427 -0.3908 0.7434
vn -0.4709 -0.3121 0.8251
vn -0.4232 -0.4783 0.7695
vn -0.0004 0.1155 0.9933
vn 0.4139 -0.0011 0.9103
vn 0.5805 -0.2296 0.7813
vn 0.9188 -0.3400 0.2007
vn 0.7713 -0.5611 0.3004
vn 0.5620 -0.6596 0.4990
vn 0.0070 -0.8127 0.5826
vn -0.5748 -0.5858 0.5714
vn -0.5886 -0.2371 0.7729
vn -0.4011 0.0223 0.9158
vn -0.0050 -0.2016 0.9795
vn -0.0046 -0.6817 0.7316
vn -0.1647 0.1089 -0.9803
vn 0.1649 0.1082 -0.9804
vn 0.0034 0.0710 -0.9975
vn -0.9782 -0.1286 0.1633
vn 0.9914 0.1289 0.0233
vn 0.9697 0.2420 -0.0337
vn 0.6411 0.1201 -0.7580
vn 0.7325 0.2311 -0.6403
vn 0.6760 -0.1344 -0.7245
vn -0.4144 -0.1305 0.9007
vn 0.0066 -0.0428 0.9991
vn 0.0817 -0.1268 0.9886
vn -0.0087 0.0519 0.9986
vn -0.2165 -0.0598 0.9744
vn 0.0054 -0.2668 0.9637
vn -0.5360 -0.4024 0.7422
vn -0.6052 0.0387 0.7951
vn -0.6860 0.1704 0.7074
vn -0.9702 -0.0783 0.2293
vn -0.8019 -0.0866 0.5912
vn -0.1490 0.2543 0.9556
vn 0.8199 -0.0053 0.5724
vn 0.8672 -0.1331 -0.4799
vn 0.1322 -0.1511 -0.9796
vn -0.0132 0.5916 0.8061
vn -0.1795 0.5354 0.8253
vn -0.7894 0.4235 0.4445
vn -0.8300 -0.0447 0.5560
vn -0.9739 -0.2232 0.0403
vn -0.9512 -0.0965 -0.2932
vn -0.9673 0.0700 0.2439
vn -0.0583 0.7322 0.6786
vn 0.8257 -0.5076 0.2460
vn 0.5381 -0.6265 -0.5639
vn -0.2183 -0.8818 0.4181
vn 0.8981 -0.4380 -0.0408
vn 0.3088 -0.2002 -0.9298
vn -0.1001 0.4660 -0.8791
vn 0.0597 0.5702 -0.8193
vn 0.0455 0.7729 -0.6329
vn -0.5711 0.7634 0.3018
vn -0.8594 0.1283 0.4950
vn -0.2960 -0.0510 0.9538
vn 0.5506 -0.1810 0.8149
vn 0.7118 -0.5968 0.3703
vn 0.7324 -0.5931 -0.3343
vn -0.1764 0.0907 -0.9801
vn -0.7670 0.2870 -0.5738
vn -0.5863 0.5695 -0.5761
vn -0.2471 0.8903 -0.3826
vn -0.5023 0.8147 0.2898
vn -0.5188 -0.0008 -0.8549
vn -0.4479 -0.5714 -0.6877
vn -0.7926 -0.5702 0.2161
vn -0.0302 -0.1558 0.9873
vn -0.8711 0.3996 0.2854
vn -0.6743 0.3939 0.6246
vn -0.6417 0.7437 0.1876
vn 0.3513 0.2589 0.8998
vn -0.4080 0.4378 -0.8012
vn -0.8430 0.3963 0.3637
vn -0.3754 0.5550 0.7423
vn 0.4535 -0.4977 0.7394
vn 0.4914 -0.5505 -0.6749
vn -0.2074 -0.8187 -0.5355
vn -0.6803 -0.6991 0.2200
vn 0.0178 -0.8178 0.5752
vn -0.5668 -0.7793 0.2672
vn 0.4118 -0.1326 0.9016
vn -0.0854 -0.1223 0.9888
vn 0.2086 -0.0561 0.9764
vn 0.5400 -0.4014 0.7398
vn 0.6191 0.0397 0.7843
vn 0.6892 0.1705 0.7043
vn 0.9702 -0.0783 0.2293
vn 0.8019 -0.0866 0.5912
vn 0.1490 0.2543 0.9556
vn -0.8199 -0.0053 0.5724
vn -0.8672 -0.1331 -0.4799
vn -0.1374 -0.1443 -0.9799
vn 0.1663 0.5353 0.8282
vn 0.7894 0.4235 0.4445
vn 0.8300 -0.0447 0.5560
vn 0.9739 -0.2232 0.0403
vn 0.9512 -0.0965 -0.2931
vn 0.9673 0.0700 0.2439
vn 0.0583 0.7322 0.6786
vn -0.8257 -0.5076 0.2460
vn -0.5381 -0.6265 -0.5639
vn 0.2183 -0.8818 0.4181
vn -0.8869 -0.4601 -0.0418
vn -0.3123 -0.2111 -0.9262
vn 0.1001 0.4660 -0.8791
vn -0.0597 0.5702 -0.8194
vn -0.4918 0.4508 -0.7450
vn 0.5711 0.7634 0.3018
vn 0.8594 0.1283 0.4950
vn 0.2960 -0.0510 0.9538
vn -0.5470 -0.2013 0.8126
vn -0.6983 -0.6137 0.3684
vn -0.7164 -0.6106 -0.3375
vn 0.1819 0.1039 -0.9778
vn 0.7574 0.3041 -0.5778
vn 0.5863 0.5695 -0.5761
vn 0.2471 0.8903 -0.3826
vn 0.5023 0.8147 0.2898
vn 0.5188 -0.0008 -0.8549
vn 0.4479 -0.5714 -0.6877
vn 0.7926 -0.5702 0.2161
vn 0.0302 -0.1558 0.9873
vn 0.8711 0.3996 0.2854
vn 0.6603 0.4083 0.6303
vn 0.6288 0.7559 0.1825
vn -0.3448 0.2606 0.9018
vn 0.4080 0.4378 -0.8012
vn 0.8430 0.3963 0.3637
vn 0.3754 0.5550 0.7423
vn -0.4535 -0.4977 0.7394
vn -0.4913 -0.5505 -0.6749
vn 0.2074 -0.8187 -0.5355
vn 0.6804 -0.6991 0.2200
vn -0.0177 -0.8178 0.5752
vn 0.5669 -0.7793 0.2672
# 199 vertex normals

vt 0.7119 -0.0444 0.0000
vt 0.7760 -0.0566 0.0000
vt 0.7249 -0.0142 0.0000
vt 0.7759 -0.0227 0.0000
vt 0.0732 -0.8918 0.0000
vt 0.0720 -0.9504 0.0000
vt 0.0149 -0.9504 0.0000
vt 0.0225 -0.8918 0.0000
vt 0.0293 -0.8550 0.0000
vt 0.0715 -0.9858 0.0000
vt 0.0107 -0.9675 0.0000
vt 0.7229 -0.0098 0.0000
vt 0.7760 -0.0217 0.0000
vt 0.8428 -0.0071 0.0000
vt 0.7759 -0.5723 0.0000
vt 0.7759 -0.4976 0.0000
vt 0.7595 -0.8892 0.0000
vt 0.7293 -0.3683 0.0000
vt 0.7510 -0.4155 0.0000
vt 0.7063 -0.5398 0.0000
vt 0.7224 -0.5432 0.0000
vt 0.6751 -0.7154 0.0000
vt 0.0981 -0.7043 0.0000
vt 0.0957 -0.7397 0.0000
vt 0.0776 -0.7002 0.0000
vt 0.1143 -0.7500 0.0000
vt 0.1201 -0.7751 0.0000
vt 0.0999 -0.7671 0.0000
vt 0.0784 -0.7375 0.0000
vt 0.1399 -0.7637 0.0000
vt 0.1426 -0.8069 0.0000
vt 0.1399 -0.8411 0.0000
vt 0.1279 -0.8550 0.0000
vt 0.1023 -0.7888 0.0000
vt 0.0786 -0.7888 0.0000
vt 0.0786 -0.7651 0.0000
vt 0.0635 -0.7397 0.0000
vt 0.0613 -0.7080 0.0000
vt 0.0627 -0.7354 0.0000
vt 0.0681 -0.7166 0.0000
vt 0.0769 -0.6953 0.0000
vt 0.1030 -0.7559 0.0000
vt 0.1055 -0.7068 0.0000
vt 0.1250 -0.7214 0.0000
vt 0.1184 -0.7986 0.0000
vt 0.1404 -0.7600 0.0000
vt 0.1426 -0.8484 0.0000
vt 0.1245 -0.8591 0.0000
vt 0.1401 -0.9460 0.0000
vt 0.0996 -0.9238 0.0000
vt 0.1125 -0.8738 0.0000
vt 0.0574 -0.7888 0.0000
vt 0.0598 -0.7671 0.0000
vt 0.0408 -0.7542 0.0000
vt 0.0396 -0.7183 0.0000
vt 0.0281 -0.8203 0.0000
vt 0.0449 -0.7751 0.0000
vt 0.0308 -0.7847 0.0000
vt 0.1360 -0.8918 0.0000
vt 0.1455 -0.9504 0.0000
vt 0.1499 -0.9675 0.0000
vt 0.1150 -0.8291 0.0000
vt 0.1187 -0.7959 0.0000
vt 0.1116 -0.7468 0.0000
vt 0.0513 -0.7375 0.0000
vt 0.0542 -0.7175 0.0000
vt 0.0242 -0.7466 0.0000
vt 0.0410 -0.7432 0.0000
vt 0.0327 -0.7639 0.0000
vt 0.0317 -0.7961 0.0000
vt 0.0239 -0.8086 0.0000
vt 0.0352 -0.8291 0.0000
vt 0.0298 -0.8906 0.0000
vt 0.0396 -0.8538 0.0000
vt 0.0439 -0.8784 0.0000
vt 0.0557 -0.8933 0.0000
vt 0.0508 -0.9238 0.0000
vt 0.0164 -0.8867 0.0000
vt 0.0068 -0.9841 0.0000
vt 0.0193 -0.7852 0.0000
vt 0.2690 -0.2449 0.0000
vt 0.1975 -0.0020 0.0000
vt 0.0588 -0.0281 0.0000
vt 0.5081 -0.0398 0.0000
vt 0.3821 -0.2578 0.0000
vt 0.5452 -0.2288 0.0000
vt 0.5232 -0.3174 0.0000
vt 0.3438 -0.4194 0.0000
vt 0.5034 -0.3962 0.0000
vt 0.4146 -0.5254 0.0000
vt 0.4834 -0.4753 0.0000
vt 0.3762 -0.5166 0.0000
vt 0.2690 -0.5581 0.0000
vt 0.1196 -0.5337 0.0000
vt 0.1819 -0.5205 0.0000
vt 0.0945 -0.4832 0.0000
vt 0.1946 -0.4194 0.0000
vt 0.0625 -0.3962 0.0000
vt 0.0305 -0.3096 0.0000
vt 0.1560 -0.2578 0.0000
vt 0.2690 -0.4163 0.0000
vt 0.0085 -0.2219 0.0000
vt 0.2690 -0.4409 0.0000
vt 0.2767 -0.7218 0.0000
vt 0.3613 -0.7834 0.0000
vt 0.1686 -0.7939 0.0000
vt 0.4458 -0.7218 0.0000
vt 0.3613 -0.6436 0.0000
vt 0.2171 -0.6439 0.0000
vt 0.1921 -0.7218 0.0000
vt 0.8411 -0.0444 0.0000
vt 0.8281 -0.0142 0.0000
vt 0.7760 -0.0227 0.0000
vt 0.0921 -0.8918 0.0000
vt 0.1505 -0.9504 0.0000
vt 0.0933 -0.9504 0.0000
vt 0.1429 -0.8918 0.0000
vt 0.1361 -0.8550 0.0000
vt 0.0938 -0.9858 0.0000
vt 0.1546 -0.9675 0.0000
vt 0.7760 -0.5723 0.0000
vt 0.7915 -0.8892 0.0000
vt 0.7760 -0.4976 0.0000
vt 0.8217 -0.3641 0.0000
vt 0.8447 -0.5398 0.0000
vt 0.8000 -0.4155 0.0000
vt 0.8286 -0.5432 0.0000
vt 0.8759 -0.7154 0.0000
vt 0.4455 -0.7218 0.0000
vt 0.5536 -0.7939 0.0000
vt 0.3609 -0.7834 0.0000
vt 0.3609 -0.6436 0.0000
vt 0.5051 -0.6439 0.0000
vt 0.5301 -0.7218 0.0000
vt 0.6734 -0.5908 0.0000
vt 0.7759 -0.5698 0.0000
vt 0.7759 -0.4985 0.0000
vt 0.7075 -0.8921 0.0000
vt 0.7623 -0.1814 0.0000
vt 0.6638 -0.1868 0.0000
vt 0.7876 -0.2380 0.0000
vt 0.6846 -0.2375 0.0000
vt 0.6870 -0.3919 0.0000
vt 0.6524 -0.4880 0.0000
vt 0.6131 -0.5840 0.0000
vt 0.6563 -0.8909 0.0000
vt 0.6775 -0.9353 0.0000
vt 0.7193 -0.9363 0.0000
vt 0.7556 -0.9365 0.0000
vt 0.6941 -0.8857 0.0000
vt 0.7759 -0.5691 0.0000
vt 0.6301 -0.5845 0.0000
vt 0.7623 -0.1389 0.0000
vt 0.6536 -0.1256 0.0000
vt 0.6013 -0.1472 0.0000
vt 0.6062 -0.1846 0.0000
vt 0.6182 -0.2205 0.0000
vt 0.6248 -0.3719 0.0000
vt 0.6152 -0.4873 0.0000
vt 0.6401 -0.8918 0.0000
vt 0.6626 -0.9348 0.0000
vt 0.6580 -0.9709 0.0000
vt 0.7046 -0.9998 0.0000
vt 0.7317 -0.9988 0.0000
vt 0.7768 -0.3831 0.0000
vt 0.5918 -0.0940 0.0000
vt 0.9603 -0.0944 0.0000
vt 0.6653 -0.3614 0.0000
vt 0.5935 -0.1550 0.0000
vt 0.5943 -0.2815 0.0000
vt 0.5828 -0.2788 0.0000
vt 0.5674 -0.1025 0.0000
vt 0.5772 -0.0752 0.0000
vt 0.6082 -0.0593 0.0000
vt 0.5967 -0.0767 0.0000
vt 0.5979 -0.1191 0.0000
vt 0.5933 -0.1526 0.0000
vt 0.5986 -0.2810 0.0000
vt 0.5881 -0.4080 0.0000
vt 0.5869 -0.4146 0.0000
vt 0.5728 -0.4150 0.0000
vt 0.5696 -0.2788 0.0000
vt 0.5618 -0.0986 0.0000
vt 0.5720 -0.0625 0.0000
vt 0.5772 -0.0747 0.0000
vt 0.7007 -0.9348 0.0000
vt 0.7024 -0.9980 0.0000
vt 0.6394 -0.9976 0.0000
vt 0.6231 -0.9980 0.0000
vt 0.5674 -0.1050 0.0000
vt 0.5769 -0.2800 0.0000
vt 0.5679 -0.4023 0.0000
vt 0.5830 -0.4014 0.0000
vt 0.5728 -0.5132 0.0000
vt 0.5589 -0.5117 0.0000
vt 0.5769 -0.4619 0.0000
vt 0.5930 -0.4639 0.0000
vt 0.5906 -0.5151 0.0000
vt 0.5925 -0.5894 0.0000
vt 0.5852 -0.5942 0.0000
vt 0.5745 -0.4968 0.0000
vt 0.5881 -0.5071 0.0000
vt 0.8776 -0.5908 0.0000
vt 0.7760 -0.4985 0.0000
vt 0.7760 -0.5698 0.0000
vt 0.8435 -0.8921 0.0000
vt 0.7624 -0.1814 0.0000
vt 0.7877 -0.2380 0.0000
vt 0.8608 -0.1868 0.0000
vt 0.8894 -0.2375 0.0000
vt 0.8640 -0.3919 0.0000
vt 0.8986 -0.4880 0.0000
vt 0.9379 -0.5840 0.0000
vt 0.8947 -0.8909 0.0000
vt 0.8735 -0.9353 0.0000
vt 0.8317 -0.9363 0.0000
vt 0.7954 -0.9365 0.0000
vt 0.8569 -0.8857 0.0000
vt 0.7760 -0.5691 0.0000
vt 0.9209 -0.5845 0.0000
vt 0.7624 -0.1389 0.0000
vt 0.8687 -0.1256 0.0000
vt 0.9233 -0.1472 0.0000
vt 0.9185 -0.1846 0.0000
vt 0.9253 -0.2205 0.0000
vt 0.9262 -0.3719 0.0000
vt 0.9358 -0.4873 0.0000
vt 0.9109 -0.8918 0.0000
vt 0.8884 -0.9348 0.0000
vt 0.8930 -0.9709 0.0000
vt 0.8464 -0.9998 0.0000
vt 0.8193 -0.9988 0.0000
vt 0.7769 -0.3831 0.0000
vt 0.9592 -0.0940 0.0000
vt 0.8857 -0.3614 0.0000
vt 0.9575 -0.1550 0.0000
vt 0.9567 -0.2815 0.0000
vt 0.9682 -0.2788 0.0000
vt 0.9836 -0.1025 0.0000
vt 0.9738 -0.0752 0.0000
vt 0.9428 -0.0593 0.0000
vt 0.8391 -0.0444 0.0000
vt 0.9543 -0.0767 0.0000
vt 0.9531 -0.1191 0.0000
vt 0.9577 -0.1526 0.0000
vt 0.9524 -0.2810 0.0000
vt 0.9629 -0.4080 0.0000
vt 0.9641 -0.4146 0.0000
vt 0.9782 -0.4150 0.0000
vt 0.9814 -0.2788 0.0000
vt 0.9892 -0.0986 0.0000
vt 0.9790 -0.0625 0.0000
vt 0.9738 -0.0747 0.0000
vt 0.8503 -0.9348 0.0000
vt 0.8486 -0.9980 0.0000
vt 0.9116 -0.9976 0.0000
vt 0.9279 -0.9980 0.0000
vt 0.9836 -0.1050 0.0000
vt 0.9741 -0.2800 0.0000
vt 0.9831 -0.4023 0.0000
vt 0.9680 -0.4014 0.0000
vt 0.9782 -0.5132 0.0000
vt 0.9921 -0.5117 0.0000
vt 0.9741 -0.4619 0.0000
vt 0.9580 -0.4639 0.0000
vt 0.9604 -0.5151 0.0000
vt 0.9585 -0.5894 0.0000
vt 0.9658 -0.5942 0.0000
vt 0.9765 -0.4968 0.0000
vt 0.9629 -0.5071 0.0000
# 270 texture coords

g Mesh01
usemtl Material__2
s 1
f 1/1/1 2/2/2 3/3/3 
f 3/3/3 2/2/2 4/4/4 
f 5/5/5 6/6/6 7/7/7 
f 8/8/8 5/5/5 7/7/7 
f 5/5/5 8/8/8 9/9/9 
f 7/7/7 6/6/6 10/10/10 
f 11/11/11 7/7/7 10/10/10 
f 3/12/3 4/13/4 12/14/12 
f 13/15/13 14/16/14 15/17/15 
f 16/18/16 17/19/17 18/20/18 
f 17/19/17 19/21/19 18/20/18 
f 18/20/18 19/21/19 20/22/20 
f 21/23/21 22/24/22 23/25/23 
f 22/24/22 21/23/21 24/26/24 
f 24/26/24 25/27/25 22/24/22 
f 25/27/25 26/28/26 22/24/22 
f 22/24/22 26/28/26 27/29/27 
f 22/24/22 27/29/27 23/25/23 
f 28/30/28 25/27/25 24/26/24 
f 28/30/28 29/31/29 25/27/25 
f 29/31/29 30/32/30 25/27/25 
f 25/27/25 30/32/30 31/33/31 
f 31/33/31 32/34/32 25/27/25 
f 26/28/26 25/27/25 32/34/32 
f 32/34/32 33/35/33 26/28/26 
f 33/35/33 34/36/34 26/28/26 
f 26/28/26 34/36/34 27/29/27 
f 27/29/27 34/36/34 35/37/35 
f 27/29/27 35/37/35 36/38/36 
f 37/39/37 27/29/27 36/38/36 
f 37/39/37 38/40/38 27/29/27 
f 38/40/38 23/41/23 27/29/27 
f 23/41/23 38/40/38 39/42/39 
f 21/43/21 23/41/23 39/42/39 
f 24/44/24 21/43/21 39/42/39 
f 24/44/24 39/42/39 40/45/40 
f 28/46/28 24/44/24 40/45/40 
f 29/47/29 28/46/28 40/45/40 
f 41/48/41 29/47/29 40/45/40 
f 30/49/30 29/47/29 41/48/41 
f 42/50/42 30/49/30 41/48/41 
f 41/48/41 12/51/12 42/50/42 
f 5/5/5 32/34/32 31/33/31 
f 33/35/33 32/34/32 5/5/5 
f 5/5/5 43/52/43 33/35/33 
f 34/36/34 33/35/33 43/52/43 
f 44/53/44 34/36/34 43/52/43 
f 34/36/34 44/53/44 35/37/35 
f 35/37/35 44/53/44 45/54/45 
f 35/37/35 45/54/45 46/55/46 
f 36/38/36 35/37/35 46/55/46 
f 9/9/9 43/52/43 5/5/5 
f 9/9/9 47/56/47 43/52/43 
f 43/52/43 47/56/47 48/57/48 
f 43/52/43 48/57/48 44/53/44 
f 44/53/44 48/57/48 45/54/45 
f 45/54/45 48/57/48 49/58/49 
f 49/58/49 46/55/46 45/54/45 
f 50/59/50 31/33/31 8/8/8 
f 50/59/50 8/8/8 7/7/7 
f 51/60/51 50/59/50 7/7/7 
f 52/61/52 51/60/51 7/7/7 
f 11/11/11 52/61/52 7/7/7 
f 11/11/11 10/10/10 52/61/52 
f 31/33/31 9/9/9 8/8/8 
f 47/56/47 49/58/49 48/57/48 
f 53/62/53 12/51/12 41/48/41 
f 53/62/53 41/48/41 40/45/40 
f 40/45/40 54/63/54 53/62/53 
f 54/63/54 40/45/40 55/64/55 
f 40/45/40 39/42/39 55/64/55 
f 55/64/55 39/42/39 37/39/37 
f 39/42/39 38/40/38 37/39/37 
f 56/65/56 36/66/36 46/67/46 
f 36/66/36 56/65/56 37/39/37 
f 56/65/56 57/68/57 37/39/37 
f 57/68/57 56/65/56 58/69/58 
f 58/69/58 59/70/59 57/68/57 
f 59/70/59 58/69/58 60/71/60 
f 59/70/59 60/71/60 61/72/61 
f 60/71/60 62/73/62 61/72/61 
f 63/74/63 61/72/61 62/73/62 
f 62/73/62 64/75/64 63/74/63 
f 62/73/62 3/76/3 64/75/64 
f 1/77/1 3/76/3 62/73/62 
f 62/73/62 47/78/47 9/79/9 
f 47/78/47 62/73/62 49/80/49 
f 49/80/49 62/73/62 60/71/60 
f 60/71/60 58/69/58 49/80/49 
f 58/69/58 46/67/46 49/80/49 
f 58/69/58 56/65/56 46/67/46 
f 65/81/65 37/82/37 57/83/57 
f 55/84/55 37/82/37 65/81/65 
f 55/84/55 65/81/65 66/85/66 
f 66/85/66 54/86/54 55/84/55 
f 66/85/66 53/87/53 54/86/54 
f 67/88/67 53/87/53 66/85/66 
f 68/89/68 53/87/53 67/88/67 
f 12/90/12 53/87/53 68/89/68 
f 68/89/68 69/91/69 12/90/12 
f 12/90/12 69/91/69 70/92/70 
f 70/92/70 71/93/71 12/90/12 
f 12/90/12 71/93/71 3/94/3 
f 3/94/3 71/93/71 72/95/72 
f 72/95/72 64/96/64 3/94/3 
f 73/97/73 64/96/64 72/95/72 
f 63/98/63 64/96/64 73/97/73 
f 73/97/73 61/99/61 63/98/63 
f 74/100/74 65/81/65 57/83/57 
f 73/97/73 65/81/65 74/100/74 
f 65/81/65 73/97/73 75/101/75 
f 75/101/75 67/88/67 65/81/65 
f 66/85/66 65/81/65 67/88/67 
f 57/83/57 59/102/59 74/100/74 
f 59/102/59 61/99/61 74/100/74 
f 74/100/74 61/99/61 73/97/73 
f 72/95/72 71/93/71 73/97/73 
f 71/93/71 76/103/76 73/97/73 
f 73/97/73 76/103/76 75/101/75 
f 75/101/75 76/103/76 67/88/67 
f 67/88/67 76/103/76 71/93/71 
f 67/88/67 71/93/71 70/92/70 
f 70/92/70 69/91/69 67/88/67 
f 67/88/67 69/91/69 68/89/68 
f 77/104/77 13/105/13 20/106/20 
f 13/105/13 77/104/77 78/107/78 
f 77/104/77 79/108/79 78/107/78 
f 77/104/77 17/109/17 79/108/79 
f 77/104/77 19/110/19 17/109/17 
f 20/106/20 19/110/19 77/104/77 
f 42/111/42 12/112/12 2/2/2 
f 12/112/12 4/113/4 2/2/2 
f 5/114/5 51/115/51 6/116/6 
f 50/117/50 51/115/51 5/114/5 
f 5/114/5 31/118/31 50/117/50 
f 51/115/51 10/119/10 6/116/6 
f 52/120/52 10/119/10 51/115/51 
f 13/121/13 80/122/80 14/123/14 
f 81/124/81 82/125/82 83/126/83 
f 83/126/83 82/125/82 84/127/84 
f 82/125/82 85/128/85 84/127/84 
f 78/129/78 85/130/85 13/131/13 
f 78/129/78 79/132/79 83/133/83 
f 78/129/78 83/133/83 84/134/84 
f 85/130/85 78/129/78 84/134/84 
f 9/79/9 1/77/1 62/73/62 
f 86/135/86 14/136/14 87/137/87 
f 14/136/14 86/135/86 88/138/88 
f 88/138/88 15/17/15 14/136/14 
f 89/139/89 90/140/90 91/141/91 
f 90/140/90 92/142/92 91/141/91 
f 92/142/92 93/143/93 91/141/91 
f 87/137/87 91/141/91 93/143/93 
f 93/143/93 94/144/94 87/137/87 
f 87/137/87 94/144/94 86/135/86 
f 94/144/94 95/145/95 86/135/86 
f 86/135/86 95/145/95 96/146/96 
f 88/138/88 86/135/86 96/146/96 
f 88/138/88 96/146/96 97/147/97 
f 97/147/97 98/148/98 88/138/88 
f 15/17/15 88/138/88 98/148/98 
f 98/148/98 99/149/99 15/17/15 
f 100/150/100 15/17/15 99/149/99 
f 15/17/15 100/150/100 13/151/13 
f 20/152/20 13/151/13 100/150/100 
f 89/139/89 101/153/101 90/140/90 
f 101/153/101 102/154/102 90/140/90 
f 102/154/102 103/155/103 90/140/90 
f 103/155/103 104/156/104 90/140/90 
f 90/140/90 104/156/104 92/142/92 
f 92/142/92 104/156/104 105/157/105 
f 93/143/93 92/142/92 105/157/105 
f 16/158/16 93/143/93 105/157/105 
f 94/144/94 93/143/93 16/158/16 
f 18/159/18 94/144/94 16/158/16 
f 95/145/95 94/144/94 18/159/18 
f 20/152/20 95/145/95 18/159/18 
f 95/145/95 20/152/20 106/160/106 
f 106/160/106 96/146/96 95/145/95 
f 96/146/96 106/160/106 107/161/107 
f 107/161/107 97/147/97 96/146/96 
f 97/147/97 107/161/107 108/162/108 
f 108/162/108 109/163/109 97/147/97 
f 109/163/109 98/148/98 97/147/97 
f 110/164/110 98/148/98 109/163/109 
f 99/149/99 98/148/98 110/164/110 
f 79/165/79 9/166/9 31/167/31 
f 79/165/79 17/168/17 9/166/9 
f 9/166/9 17/168/17 16/158/16 
f 105/157/105 9/166/9 16/158/16 
f 9/166/9 105/157/105 111/169/111 
f 112/170/112 9/166/9 111/169/111 
f 9/166/9 112/170/112 113/171/113 
f 113/171/113 114/172/114 9/166/9 
f 114/172/114 115/173/115 9/166/9 
f 116/174/116 9/166/9 115/173/115 
f 116/174/116 1/1/1 9/166/9 
f 1/1/1 116/174/116 117/175/117 
f 1/1/1 117/175/117 102/154/102 
f 1/1/1 102/154/102 2/2/2 
f 103/155/103 111/169/111 105/157/105 
f 118/176/118 111/169/111 103/155/103 
f 111/169/111 118/176/118 119/177/119 
f 120/178/120 111/169/111 119/177/119 
f 111/169/111 120/178/120 112/170/112 
f 112/170/112 120/178/120 121/179/121 
f 121/179/121 122/180/122 112/170/112 
f 113/171/113 112/170/112 122/180/122 
f 122/180/122 123/181/123 113/171/113 
f 124/182/124 113/171/113 123/181/123 
f 114/172/114 113/171/113 124/182/124 
f 124/182/124 125/183/125 114/172/114 
f 115/173/115 114/172/114 125/183/125 
f 126/184/126 115/173/115 125/183/125 
f 115/173/115 126/184/126 116/174/116 
f 116/174/116 126/184/126 127/185/127 
f 127/185/127 117/175/117 116/174/116 
f 118/176/118 117/175/117 127/185/127 
f 117/175/117 118/176/118 103/155/103 
f 103/155/103 102/154/102 117/175/117 
f 104/156/104 103/155/103 105/157/105 
f 102/154/102 101/153/101 2/2/2 
f 100/150/100 106/160/106 20/152/20 
f 106/160/106 100/150/100 128/186/128 
f 128/186/128 107/161/107 106/160/106 
f 129/187/129 107/161/107 128/186/128 
f 130/188/130 107/161/107 129/187/129 
f 107/161/107 130/188/130 108/162/108 
f 130/188/130 131/189/131 108/162/108 
f 131/189/131 109/163/109 108/162/108 
f 109/163/109 131/189/131 130/188/130 
f 130/188/130 129/187/129 109/163/109 
f 129/187/129 110/164/110 109/163/109 
f 99/149/99 110/164/110 129/187/129 
f 128/186/128 99/149/99 129/187/129 
f 99/149/99 128/186/128 100/150/100 
f 118/176/118 127/185/127 132/190/132 
f 132/190/132 127/185/127 126/184/126 
f 125/183/125 132/190/132 126/184/126 
f 124/182/124 132/190/132 125/183/125 
f 132/190/132 124/182/124 133/191/133 
f 133/191/133 119/177/119 132/190/132 
f 132/190/132 119/177/119 118/176/118 
f 133/191/133 124/182/124 134/192/134 
f 134/192/134 135/193/135 133/191/133 
f 120/178/120 133/191/133 135/193/135 
f 119/177/119 133/191/133 120/178/120 
f 123/181/123 134/192/134 124/182/124 
f 123/181/123 136/194/136 134/192/134 
f 136/194/136 137/195/137 134/192/134 
f 138/196/138 134/192/134 137/195/137 
f 134/192/134 138/196/138 135/193/135 
f 138/196/138 139/197/139 135/193/135 
f 121/179/121 135/193/135 139/197/139 
f 135/193/135 121/179/121 120/178/120 
f 123/181/123 122/180/122 136/194/136 
f 122/180/122 140/198/140 136/194/136 
f 141/199/141 136/194/136 140/198/140 
f 136/194/136 141/199/141 142/200/142 
f 137/195/137 136/194/136 142/200/142 
f 142/200/142 143/201/143 137/195/137 
f 138/196/138 137/195/137 143/201/143 
f 143/201/143 144/202/144 138/196/138 
f 139/197/139 138/196/138 144/202/144 
f 139/197/139 144/202/144 143/201/143 
f 143/201/143 121/179/121 139/197/139 
f 143/201/143 140/198/140 121/179/121 
f 140/198/140 122/180/122 121/179/121 
f 141/199/141 140/198/140 143/201/143 
f 142/200/142 141/199/141 143/201/143 
f 145/203/145 87/204/87 14/205/14 
f 14/205/14 146/206/146 145/203/145 
f 146/206/146 14/205/14 80/122/80 
f 89/207/89 91/208/91 147/209/147 
f 147/209/147 91/208/91 148/210/148 
f 148/210/148 91/208/91 149/211/149 
f 87/204/87 149/211/149 91/208/91 
f 149/211/149 87/204/87 150/212/150 
f 87/204/87 145/203/145 150/212/150 
f 150/212/150 145/203/145 151/213/151 
f 145/203/145 152/214/152 151/213/151 
f 146/206/146 152/214/152 145/203/145 
f 146/206/146 153/215/153 152/214/152 
f 153/215/153 146/206/146 154/216/154 
f 80/122/80 154/216/154 146/206/146 
f 154/216/154 80/122/80 155/217/155 
f 156/218/156 155/217/155 80/122/80 
f 80/122/80 13/219/13 156/218/156 
f 85/220/85 156/218/156 13/219/13 
f 89/207/89 147/209/147 101/221/101 
f 101/221/101 147/209/147 157/222/157 
f 157/222/157 147/209/147 158/223/158 
f 158/223/158 147/209/147 159/224/159 
f 147/209/147 148/210/148 159/224/159 
f 148/210/148 160/225/160 159/224/159 
f 149/211/149 160/225/160 148/210/148 
f 81/226/81 160/225/160 149/211/149 
f 150/212/150 81/226/81 149/211/149 
f 82/227/82 81/226/81 150/212/150 
f 151/213/151 82/227/82 150/212/150 
f 85/220/85 82/227/82 151/213/151 
f 151/213/151 161/228/161 85/220/85 
f 161/228/161 151/213/151 152/214/152 
f 152/214/152 162/229/162 161/228/161 
f 162/229/162 152/214/152 153/215/153 
f 153/215/153 163/230/163 162/229/162 
f 163/230/163 153/215/153 164/231/164 
f 164/231/164 153/215/153 154/216/154 
f 165/232/165 164/231/164 154/216/154 
f 155/217/155 165/232/165 154/216/154 
f 79/233/79 31/234/31 83/235/83 
f 31/234/31 81/226/81 83/235/83 
f 160/225/160 81/226/81 31/234/31 
f 31/234/31 166/236/166 160/225/160 
f 167/237/167 166/236/166 31/234/31 
f 31/234/31 168/238/168 167/237/167 
f 168/238/168 31/234/31 169/239/169 
f 169/239/169 31/234/31 170/240/170 
f 30/241/30 170/240/170 31/234/31 
f 30/241/171 31/234/171 42/242/42 
f 42/242/42 171/243/172 30/241/30 
f 42/242/42 157/222/157 171/243/172 
f 42/242/42 2/2/2 157/222/157 
f 158/223/158 160/225/160 166/236/166 
f 172/244/173 158/223/158 166/236/166 
f 166/236/166 173/245/174 172/244/173 
f 174/246/175 173/245/174 166/236/166 
f 166/236/166 167/237/167 174/246/175 
f 167/237/167 175/247/176 174/246/175 
f 175/247/176 167/237/167 176/248/177 
f 168/238/168 176/248/177 167/237/167 
f 176/248/177 168/238/168 177/249/178 
f 178/250/179 177/249/178 168/238/168 
f 169/239/169 178/250/179 168/238/168 
f 178/250/179 169/239/169 179/251/180 
f 170/240/170 179/251/180 169/239/169 
f 180/252/181 179/251/180 170/240/170 
f 170/240/170 30/241/30 180/252/181 
f 30/241/30 181/253/182 180/252/181 
f 181/253/182 30/241/30 171/243/172 
f 172/244/173 181/253/182 171/243/172 
f 171/243/172 158/223/158 172/244/173 
f 158/223/158 171/243/172 157/222/157 
f 159/224/159 160/225/160 158/223/158 
f 157/222/157 2/2/2 101/221/101 
f 156/218/156 85/220/85 161/228/161 
f 161/228/161 182/254/183 156/218/156 
f 182/254/183 161/228/161 162/229/162 
f 183/255/184 182/254/183 162/229/162 
f 184/256/185 183/255/184 162/229/162 
f 162/229/162 163/230/163 184/256/185 
f 184/256/185 163/230/163 185/257/186 
f 185/257/186 163/230/163 164/231/164 
f 164/231/164 184/256/185 185/257/186 
f 184/256/185 164/231/164 183/255/184 
f 183/255/184 164/231/164 165/232/165 
f 155/217/155 183/255/184 165/232/165 
f 182/254/183 183/255/184 155/217/155 
f 155/217/155 156/218/156 182/254/183 
f 172/244/173 186/258/187 181/253/182 
f 186/258/187 180/252/181 181/253/182 
f 179/251/180 180/252/181 186/258/187 
f 178/250/179 179/251/180 186/258/187 
f 186/258/187 187/259/188 178/250/179 
f 187/259/188 186/258/187 173/245/174 
f 186/258/187 172/244/173 173/245/174 
f 187/259/188 188/260/189 178/250/179 
f 188/260/189 187/259/188 189/261/190 
f 174/246/175 189/261/190 187/259/188 
f 173/245/174 174/246/175 187/259/188 
f 177/249/178 178/250/179 188/260/189 
f 177/249/178 188/260/189 190/262/191 
f 190/262/191 188/260/189 191/263/192 
f 192/264/193 191/263/192 188/260/189 
f 188/260/189 189/261/190 192/264/193 
f 192/264/193 189/261/190 193/265/194 
f 175/247/176 193/265/194 189/261/190 
f 189/261/190 174/246/175 175/247/176 
f 177/249/178 190/262/191 176/248/177 
f 176/248/177 190/262/191 194/266/195 
f 195/267/196 194/266/195 190/262/191 
f 190/262/191 196/268/197 195/267/196 
f 191/263/192 196/268/197 190/262/191 
f 196/268/197 191/263/192 197/269/198 
f 192/264/193 197/269/198 191/263/192 
f 197/269/198 192/264/193 198/270/199 
f 193/265/194 198/270/199 192/264/193 
f 193/265/194 197/269/198 198/270/199 
f 197/269/198 193/265/194 175/247/176 
f 197/269/198 175/247/176 194/266/195 
f 194/266/195 175/247/176 176/248/177 
f 195/267/196 197/269/198 194/266/195 
f 196/268/197 197/269/198 195/267/196 
# 0 polygons - 393 triangles

